PathFileType	4	(X/Y/Z)	0_coords_data.trc
DataRate	CameraRate	NumFrames	NumMarkers	Units	OrigDataRate	OrigDataStartFrame	OrigNumFrames
30.0	30.0	6	21	m	30.0	49	78
Frame#	Time	THUMB_TIP	THUMB_IP	THUMB_MCP	THUMB_CMC	INDEX_TIP	INDEX_DIP	INDEX_PIP	INDEX_MCP	MIDDLE_TIP	MIDDLE_DIP	MIDDLE_PIP	MIDDLE_MCP	RING_TIP	RING_DIP	RING_PIP	RING_MCP	PINKY_TIP	PINKY_DIP	PINKY_PIP	PINKY_MCP	WRIST
X1	Y1	Z1	X2	Y2	Z2	X3	Y3	Z3	X4	Y4	Z4	X5	Y5	Z5	X6	Y6	Z6	X7	Y7	Z7	X8	Y8	Z8	X9	Y9	Z9	X10	Y10	Z10	X11	Y11	Z11	X12	Y12	Z12	X13	Y13	Z13	X14	Y14	Z14	X15	Y15	Z15	X16	Y16	Z16	X17	Y17	Z17	X18	Y18	Z18	X19	Y19	Z19	X20	Y20	Z20	X21	Y21	Z21
47	1.599999999999993	0.5230892558695792	-0.016401722691850473	-0.15278054657783857	0.5072894698070795	-0.02004914043172279	-0.13649978786670636	0.4808723871370859	-0.026409850410617497	-0.12131759066830627	0.47497387839537253	-0.028223827372895194	-0.07713832989807307	0.5652477741320676	0.012126134761042295	-0.15809908421925511	0.5498490215904549	0.018250818334485386	-0.1507938346487493	0.528116922564587	0.02406797883881806	-0.1395739260663808	0.4915792596845794	0.02126798213674086	-0.11787610811767274	0.5831297657800312	0.011228361158614364	-0.14514879969261119	0.5683617456793121	0.01679758084453642	-0.13626683063194156	0.5443829801230821	0.025345315785350375	-0.12207653184083256	0.5059659851170917	0.02697621180009091	-0.09932521113413928	0.5865571543847137	0.001655619461707114	-0.12032706979226104	0.5756609493051743	0.012750601288806562	-0.11120708661678574	0.5576088208788477	0.025287674723932896	-0.09949715801061304	0.5208342625452311	0.02193792514318227	-0.0830310755647577	0.5815291862991037	-0.008059709784146163	-0.09898484380052114	0.5748805613392661	0.002840032459598074	-0.08758346646427961	0.5617502230515352	0.013714133315067989	-0.07532948074391849	0.5276462261841575	0.009020193490134165	-0.06456993718530046	0.462283081001861	-0.023011742144276925	-0.05198982011943093
48	1.6333333333333262	0.5186842466949704	-0.01753854176482461	-0.15599834721940964	0.5041978432559215	-0.020964479466282326	-0.13849386018702725	0.47858330845606734	-0.026845790375164658	-0.12181675645226209	0.474209269889872	-0.02849000646391453	-0.07745399797090818	0.5636256908845074	0.014143727866422151	-0.1622619131152359	0.5482332070982158	0.019129703240204354	-0.15412486866035036	0.526723334778277	0.02362053237320505	-0.141911446556856	0.49105817875821667	0.0200316392356088	-0.11891682574868268	0.5827872557260552	0.013874538385955648	-0.14877274841545562	0.5678110682643369	0.017958005507874297	-0.1394432733297029	0.5436604534655326	0.02467464882656245	-0.12457572284654311	0.5058187356876129	0.025626247511844946	-0.10084290218488462	0.58759584006716	0.0038801997780102404	-0.12378836832440154	0.575855566692741	0.013680922283517916	-0.11424311717715863	0.5571966346873144	0.024803131413265844	-0.10206441858120735	0.520841637596619	0.020593585593076003	-0.08487969441922982	0.5826452306780553	-0.007348505073959011	-0.10142559630232245	0.5752434086187258	0.002999257986103121	-0.08997409728014927	0.5615886994389981	0.013198656259860164	-0.07771305282747942	0.5277176330637618	0.008078183893967084	-0.06642522414546681	0.4622830810018608	-0.023011742144276925	-0.05198982011943093
49	1.6666666666666594	0.5132555206657109	-0.018720271773282504	-0.15949318687549474	0.5004771839110412	-0.021941281999538376	-0.1406692870960491	0.4759274973784662	-0.02728726148848537	-0.12229666086962032	0.4733157096418116	-0.028782053641750682	-0.07779009774419804	0.5614523195085762	0.016212736600559996	-0.1668231837082405	0.5461872690046171	0.019930982594830504	-0.1578146943877346	0.5250585724162382	0.022969080565285793	-0.14453471041944072	0.4904573847434427	0.01853748144896461	-0.12010614445857826	0.5820675131167128	0.016728515069984518	-0.1526745601993632	0.5670039274657208	0.019195933018942624	-0.14292775374799738	0.5428024302174592	0.02386960285273776	-0.12737610138475752	0.5056406624771398	0.02398801158624586	-0.10257414745394011	0.5885362668643207	0.006560676076856731	-0.12749068475303105	0.5759489713612121	0.014779630264867283	-0.11754036898051345	0.5566871955541252	0.024213629916006285	-0.10488479225166292	0.520823437876623	0.01896005458838912	-0.08697078472887582	0.5839969633998107	-0.006352438627828416	-0.10392532255857956	0.5756787784187569	0.003274627762709814	-0.0924742356523886	0.5613847868733397	0.012617543222560812	-0.08025933674123842	0.5277546335381725	0.006929864909286376	-0.06853131248061123	0.4622830810018608	-0.023011742144276925	-0.051989820119430985
50	1.6999999999999926	0.5068021057938247	-0.019884947689830623	-0.1630139819669677	0.49614072473346693	-0.02293749041919879	-0.14288894937640456	0.4729362217111919	-0.027696465956827843	-0.1226967926980932	0.47233502409802064	-0.029103571372201986	-0.07811486120359712	0.5586865061079862	0.018288925388248223	-0.17161326916211367	0.5437067574912502	0.02066675613736657	-0.16171614572608717	0.5231237170193774	0.022137350500300634	-0.14735698035504446	0.4897729673929482	0.016783215579481925	-0.12142058059322502	0.5808721181363918	0.019735554878292594	-0.15670160763825203	0.5658695620375487	0.020512468784715132	-0.1465862868186701	0.5417730786709033	0.022978374150622316	-0.13037862350505897	0.5053760676275526	0.022101440629533786	-0.10448197322534514	0.5891673987060195	0.009799662924089292	-0.13130360651723105	0.5758196021818447	0.01618040851873359	-0.12100203316139585	0.5560044268202105	0.02361342785262044	-0.10787614164996884	0.5207165732269077	0.01711452931507218	-0.08924142832842047	0.5854528797449456	-0.004845236150994636	-0.10640281535807006	0.5760990844537739	0.0038513848442321974	-0.0950065310111336	0.5610736911755179	0.012113600224862187	-0.08289102966625217	0.5277040069223313	0.005662302138302655	-0.07081922877156405	0.462283081001861	-0.023011742144276925	-0.051989820119430985
51	1.7333333333333258	0.499612290159113	-0.020982535108420963	-0.16624559389775173	0.49140247727049424	-0.023915060051215353	-0.1449853194452957	0.46978782745260417	-0.028081246948644334	-0.12297918848172834	0.4713005660778149	-0.029413425006367788	-0.07841657047656259	0.5554023242655753	0.020163625387434325	-0.1763487332372331	0.54085103733994	0.021221219387436596	-0.16561833046105595	0.5209801698210401	0.021129212339369374	-0.15021865540768414	0.4890228608869611	0.014857754712075955	-0.12277716640069153	0.5791592720214223	0.022629706702966157	-0.16069355732712165	0.5643743066478538	0.02179032074134224	-0.1502676170764865	0.5405681033434656	0.022044357093934264	-0.13345661770816536	0.5050284659265933	0.020046520306136184	-0.10645493736329464	0.5892497982266388	0.013413808850090359	-0.1350312972127673	0.5753257125250748	0.017805308152359478	-0.12445611063031514	0.555099748770201	0.023073748468578903	-0.11091602548209822	0.5204877448006759	0.015170858853108093	-0.09156985400195095	0.5868205266231713	-0.002809974503132251	-0.10873888126711906	0.5763906848259458	0.004748316147738296	-0.09746543270326735	0.5606105217760952	0.011748892327463234	-0.08551593872770519	0.527539092320733	0.004384953657035284	-0.07314919250902713	0.462283081001861	-0.023011742144276925	-0.051989820119430985
52	1.7666666666666588	0.4920811129622066	-0.021886299694975797	-0.16891843320864203	0.48649828206163714	-0.024761497918613373	-0.14681492139919328	0.46665129097108304	-0.02834845766048688	-0.12310731366535288	0.47029345426300884	-0.029700851313606558	-0.07866864044076222	0.5518882326804853	0.021617518746113173	-0.18072671881086827	0.5378633935819561	0.021475804955500943	-0.16926880427715324	0.5188040997502764	0.019939964054286885	-0.15294721292202335	0.48830405489853024	0.012831049304773745	-0.12408812961839721	0.5771881158286186	0.025186135038494983	-0.1643468649664349	0.5627267716214783	0.022881273910429156	-0.15369054576593516	0.5393504872241472	0.021058585723848222	-0.13638052885232138	0.5046996927531018	0.017867913722198203	-0.10835750303954994	0.5888623669684645	0.01701521083251878	-0.13834181220057062	0.5745711181725855	0.019417566783995976	-0.12761852475050717	0.5541106802067445	0.022501280170256766	-0.11376063281134963	0.5202121196107902	0.013155483472657381	-0.093804067284948	0.5880386292021128	-0.0005305737571293934	-0.11070812205515401	0.5765855561251358	0.005763031288672504	-0.09965291275723098	0.5600873999548237	0.011386317770524124	-0.08794814829471348	0.5273079308555986	0.0030555405698942106	-0.07541866275833109	0.4622830810018609	-0.023011742144276925	-0.051989820119430985
